PathFileType	4	(X/Y/Z)	S1_nor_fast_right.trc
DataRate	CameraRate	NumFrames	NumMarkers	Units	OrigDataRate	OrigDataStartFrame	OrigNumFrames
250.00	250.00	17	18	mm	250.00	5708	6523
Frame#	Time	c7	r_should	l_should	clavicle	r_upa	r_elb_l	r_elb_m	r_low	r_wri_l	r_wri_m	r_met	l_upa	l_elb_l	l_elb_m	l_low	l_wri_l	l_wri_m	l_met
	X1	Y1	Z1	X2	Y2	Z2	X3	Y3	Z3	X4	Y4	Z4	X5	Y5	Z5	X6	Y6	Z6	X7	Y7	Z7	X8	Y8	Z8	X9	Y9	Z9	X10	Y10	Z10	X11	Y11	Z11	X12	Y12	Z12	X13	Y13	Z13	X14	Y14	Z14	X15	Y15	Z15	X16	Y16	Z16	X17	Y17	Z17	X18	Y18	Z18
5708	22.82800	937.10059	1418.31238	167.46944	1012.20801	1349.73938	336.84128	988.57397	1371.81604	-31.90066	1082.30981	1309.19653	142.56114	1015.60687	1138.34180	378.62378	1043.20789	1057.08289	380.79419	994.12415	1022.81238	302.18555	1107.40198	945.14087	339.28976	1214.25232	945.89679	342.07004	1189.53162	928.61121	270.00909	1267.18054	883.05328	346.78287	998.16718	1148.50610	-76.70612	1010.15271	1064.88440	-91.32298	947.53448	1036.71729	-11.81770	973.87372	919.18317	-102.60836	1053.59009	834.12769	-84.54550	983.00732	820.06604	-100.44767	1076.07983	759.53467	-108.20320
5709	22.83200	937.32794	1418.31848	167.43988	1012.74872	1349.70850	336.71802	988.56268	1371.77979	-31.98349	1082.50012	1309.18933	142.35822	1016.56165	1138.31287	378.49927	1044.34875	1056.68665	380.69217	995.07245	1022.55859	302.11688	1107.54614	943.76385	339.34033	1214.03833	942.41791	342.01871	1189.55908	926.27142	270.18716	1266.01392	879.26062	346.91974	998.09821	1148.45642	-76.74191	1010.07715	1064.83130	-91.37206	947.48706	1036.69873	-11.77134	973.69177	919.13580	-102.57719	1053.37195	834.04553	-84.55858	982.78528	820.01947	-100.39523	1075.80115	759.44604	-108.23806
5710	22.83600	937.56024	1418.31531	167.41859	1013.29932	1349.66602	336.60275	988.55981	1371.74792	-32.06835	1082.70740	1309.18494	142.14388	1017.53113	1138.15417	378.24780	1045.52844	1056.26526	380.58234	995.90448	1022.36810	302.06573	1107.68347	942.37494	339.38153	1214.05383	939.36047	342.02072	1189.57642	923.89001	270.38882	1264.80151	875.50586	347.08820	998.02557	1148.40820	-76.77774	1010.00836	1064.77100	-91.42448	947.43854	1036.68555	-11.73102	973.51361	919.08728	-102.53881	1053.14941	833.95740	-84.58401	982.56586	819.97186	-100.34064	1075.52124	759.34680	-108.27415
5711	22.84000	937.79932	1418.30273	167.40019	1013.86938	1349.61133	336.49661	988.55139	1371.70923	-32.15267	1082.92419	1309.18420	141.91412	1018.47791	1137.89368	377.90781	1046.70679	1055.83545	380.47928	996.74323	1022.17725	301.98407	1107.75232	941.01428	339.45724	1214.09241	936.44879	342.08517	1189.54968	921.51062	270.53992	1263.54736	871.79639	347.25275	997.94958	1148.35059	-76.81966	1009.93884	1064.71082	-91.47333	947.39148	1036.66809	-11.67957	973.33423	919.04547	-102.50853	1052.93164	833.87207	-84.61913	982.34949	819.92682	-100.29053	1075.23303	759.24780	-108.31963
5712	22.84400	938.05255	1418.28027	167.40404	1014.44934	1349.55090	336.39066	988.53662	1371.67261	-32.24502	1083.13818	1309.16443	141.68527	1019.45947	1137.78979	377.71524	1047.86438	1055.39526	380.36230	997.63916	1021.97681	301.86789	1107.87512	939.66962	339.47498	1214.07190	933.62408	342.21112	1189.49878	919.10345	270.65329	1262.25769	868.15131	347.43854	997.86615	1148.29944	-76.85739	1009.86932	1064.64844	-91.52466	947.34961	1036.64722	-11.62519	973.14465	919.00232	-102.48111	1052.71521	833.78876	-84.66248	982.13818	819.88068	-100.24193	1074.94263	759.15741	-108.38984
5713	22.84800	938.31207	1418.25769	167.40140	1015.04718	1349.48291	336.28268	988.52441	1371.63757	-32.33016	1083.35706	1309.13879	141.48430	1020.46991	1137.72375	377.55573	1049.00684	1054.92444	380.25290	998.54205	1021.74554	301.75116	1107.94470	938.31598	339.52539	1213.98022	930.87659	342.35840	1189.39709	916.66071	270.78214	1260.94482	864.54608	347.62241	997.77698	1148.24951	-76.90211	1009.79712	1064.59863	-91.59083	947.30127	1036.64758	-11.59505	972.94739	918.95581	-102.45011	1052.49182	833.70770	-84.71026	981.91650	819.82367	-100.19515	1074.65198	759.06641	-108.46035
5714	22.85200	938.59259	1418.25635	167.39783	1015.66840	1349.41077	336.18369	988.52576	1371.60437	-32.40409	1083.59021	1309.11853	141.28706	1021.46875	1137.68481	377.40912	1050.13306	1054.43030	380.17139	999.42334	1021.51617	301.63425	1107.96814	937.01923	339.58771	1213.87329	928.17413	342.50851	1189.25867	914.20892	270.93164	1259.58813	861.03564	347.79126	997.68457	1148.20032	-76.94189	1009.71606	1064.55872	-91.66483	947.24451	1036.64258	-11.56714	972.74847	918.90753	-102.42461	1052.26526	833.63141	-84.75690	981.68243	819.77368	-100.14069	1074.36169	758.96631	-108.51886
5715	22.85600	938.89001	1418.24609	167.41005	1016.31763	1349.25500	336.04163	988.53149	1371.57397	-32.47434	1083.84277	1309.10852	141.09116	1022.46930	1137.60925	377.20853	1051.22668	1053.94055	380.08377	1000.27191	1021.29865	301.52505	1108.08545	935.69379	339.55545	1213.73096	925.51385	342.64410	1189.10315	911.81268	271.04834	1258.17297	857.62286	347.96677	997.58746	1148.15588	-76.98759	1009.27209	1064.38599	-91.55390	947.18872	1036.63708	-11.51214	972.55298	918.86462	-102.39761	1052.03503	833.55859	-84.80079	981.44232	819.72882	-100.07352	1074.07642	758.87042	-108.55881
5716	22.86000	939.19708	1418.23169	167.43129	1017.01379	1349.00000	335.85040	988.54767	1371.55115	-32.53220	1084.10950	1309.09595	140.90320	1023.50128	1137.48523	376.98117	1052.31421	1053.46277	379.96335	1001.14441	1021.08240	301.38324	1108.11133	934.41644	339.54843	1213.52124	922.88214	342.78024	1188.91321	909.51373	271.12720	1256.74536	854.25269	348.16904	997.48999	1148.12012	-77.02631	1008.35822	1064.06140	-91.21782	947.13245	1036.63794	-11.46033	972.35010	918.83093	-102.36076	1051.80579	833.48749	-84.84785	981.19513	819.68970	-100.00721	1073.78723	758.78088	-108.60564
5717	22.86400	939.51068	1418.22876	167.46872	1017.68732	1348.88025	335.73895	988.57593	1371.52649	-32.58112	1084.37927	1309.07263	140.73274	1024.53613	1137.36377	376.80841	1053.41040	1052.98303	379.84222	1001.97400	1020.87451	301.25620	1108.17322	933.12036	339.54022	1213.27783	920.24677	342.90607	1188.47815	907.59662	270.91895	1255.33008	850.94025	348.33716	997.39142	1148.08813	-77.06380	1008.02625	1063.96155	-91.17298	947.07410	1036.63831	-11.41850	972.14893	918.79626	-102.32484	1051.57568	833.42572	-84.89373	980.94879	819.66162	-99.94873	1073.50183	758.70563	-108.65864
5718	22.86800	939.82782	1418.22583	167.52097	1018.35632	1348.79248	335.66110	988.61322	1371.51428	-32.62522	1084.65637	1309.03943	140.55750	1025.54639	1137.26392	376.67218	1054.48364	1052.52454	379.73721	1002.77124	1020.67279	301.13797	1107.23584	931.97968	339.89758	1212.98926	917.66345	343.03326	1187.66040	906.16626	270.55679	1253.87195	847.71088	348.48462	997.29462	1148.06348	-77.10102	1007.84875	1063.91016	-91.18884	947.01727	1036.64807	-11.36739	971.95599	918.76959	-102.27883	1051.34717	833.36945	-84.93737	980.71539	819.63330	-99.89013	1073.20935	758.63269	-108.70159
5719	22.87200	940.15851	1418.21411	167.57318	1019.05408	1348.69690	335.59027	988.66193	1371.49634	-32.66149	1084.94653	1309.02063	140.38026	1026.51624	1137.17920	376.53464	1055.54956	1052.05225	379.62479	1003.66699	1020.43427	300.97247	1104.14307	931.62592	341.40115	1212.70520	915.12775	343.14072	1187.13831	904.22644	270.83841	1252.41467	844.53137	348.62299	997.20239	1148.03821	-77.12988	1007.71307	1063.87952	-91.22323	946.96082	1036.66040	-11.31054	971.76099	918.74951	-102.23025	1051.12158	833.31726	-84.98300	980.47913	819.60712	-99.82111	1072.91919	758.56873	-108.75423
5720	22.87600	940.50281	1418.20044	167.61964	1019.76178	1348.59229	335.52203	988.72205	1371.48669	-32.69610	1085.26038	1309.00598	140.21179	1027.47107	1137.07922	376.37479	1056.59497	1051.56641	379.49991	1004.53687	1020.20215	300.78815	1101.93494	931.55267	342.86255	1212.40796	912.64911	343.25470	1186.83606	902.02362	270.91840	1250.69800	841.10632	348.68079	997.11371	1148.01672	-77.15644	1007.57446	1063.84924	-91.25745	946.90247	1036.67065	-11.25404	971.56439	918.73535	-102.18917	1050.90149	833.26996	-85.02670	980.23999	819.58893	-99.75198	1072.62622	758.50983	-108.82306
5721	22.88000	940.85974	1418.19641	167.67351	1020.48883	1348.49341	335.46426	988.79651	1371.47485	-32.72875	1085.57532	1308.98975	140.03629	1028.44116	1136.95862	376.16873	1057.59790	1051.08887	379.39066	1005.29315	1019.98328	300.63495	1101.20215	930.77911	343.17386	1212.08777	910.21368	343.35782	1186.58398	899.75043	270.97983	1248.62439	837.44250	348.67734	997.02155	1147.99756	-77.18289	1007.43628	1063.82983	-91.29832	946.85266	1036.68896	-11.18834	971.36652	918.72467	-102.14082	1050.68274	833.22632	-85.07785	979.99585	819.57385	-99.68401	1072.32629	758.44586	-108.89482
5722	22.88400	941.21906	1418.19312	167.71094	1021.20270	1348.38721	335.39240	988.88037	1371.46533	-32.75529	1085.87756	1308.95764	139.86790	1029.40625	1136.84265	375.96976	1058.58472	1050.60291	379.28821	1006.04999	1019.75427	300.47025	1100.90515	929.79694	343.20465	1211.75793	907.78070	343.45712	1186.31030	897.42078	271.07870	1246.94604	834.36755	348.86731	996.92950	1147.98120	-77.21266	1007.30609	1063.81262	-91.34692	946.81061	1036.71277	-11.11628	971.16986	918.70618	-102.07953	1050.46460	833.18353	-85.12969	979.75323	819.55914	-99.62203	1072.01477	758.37695	-108.96458
5723	22.88800	941.57587	1418.17749	167.74876	1021.90527	1348.28198	335.33234	988.97424	1371.47449	-32.78252	1086.18835	1308.92371	139.70729	1030.34534	1136.70752	375.80679	1059.56274	1050.09534	379.18652	1006.83215	1019.52649	300.25946	1100.75256	928.72009	343.16565	1211.32458	905.38324	343.58499	1185.99170	895.09271	271.21008	1245.39514	831.48431	349.06686	996.83771	1147.97253	-77.24008	1007.17639	1063.78796	-91.38086	946.77045	1036.73340	-11.04831	970.96735	918.69073	-102.02383	1050.23438	833.14368	-85.17822	979.51624	819.54669	-99.56468	1071.69409	758.29742	-109.04449
5724	22.89200	941.95203	1418.16333	167.80014	1022.60339	1348.17859	335.29346	989.07825	1371.48535	-32.80976	1086.50708	1308.89001	139.54366	1031.25354	1136.55396	375.63135	1060.48657	1049.58496	379.05490	1007.55310	1019.29187	300.06009	1100.62317	927.63196	343.09692	1210.84143	902.98291	343.72183	1185.52332	892.63947	271.31815	1243.81396	828.69806	349.29361	996.75055	1147.96606	-77.26759	1007.03741	1063.77295	-91.40146	946.73645	1036.76392	-10.97778	970.75995	918.68671	-101.97355	1049.99353	833.10541	-85.22302	979.26654	819.54492	-99.50515	1071.36963	758.22888	-109.13064
